<?xml version="1.0" encoding="UTF-8"?>
<svg id="Layer_1" data-name="Layer 1" xmlns="http://www.w3.org/2000/svg" viewBox="0 0 32.8 88.4">
  <defs>
    <style>
      .cls-1 {
        fill: #000;
        stroke-width: 0px;
      }
    </style>
  </defs>
  <path class="cls-1" d="M27.9,88.4c2.7,0,4.9-2.2,4.9-4.9v-39.9c0-8.6-1.6-17-4.8-25l-3.6-9.2h0c1.2,0,2.2-1,2.2-2.2V1.8c0-1-.8-1.8-1.8-1.8H8c-1,0-1.8.8-1.8,1.8v5.4c0,1.2,1,2.2,2.2,2.2h0l-3.6,9.2C1.7,26.6,0,35,0,43.6v39.9c0,2.7,2.2,4.9,4.9,4.9,0,0,23,0,23,0Z"/>
</svg>