<?xml version="1.0" encoding="utf-8"?>
<!-- Generator: Adobe Illustrator 28.0.0, SVG Export Plug-In . SVG Version: 6.00 Build 0)  -->
<svg version="1.1" id="Layer_1" xmlns="http://www.w3.org/2000/svg" xmlns:xlink="http://www.w3.org/1999/xlink" x="0px" y="0px"
	 viewBox="0 0 90 90" style="enable-background:new 0 0 90 90;" xml:space="preserve">
<path d="M54.7,89.2c2.7,0,4.9-2.2,4.9-4.9V44.4c0-8.6-1.6-17-4.8-25l-3.6-9.2l0,0c1.2,0,2.2-1,2.2-2.2V2.6c0-1-0.8-1.8-1.8-1.8H34.8
	c-1,0-1.8,0.8-1.8,1.8V8c0,1.2,1,2.2,2.2,2.2l0,0l-3.6,9.2c-3.1,8-4.8,16.4-4.8,25v39.9c0,2.7,2.2,4.9,4.9,4.9
	C31.7,89.2,54.7,89.2,54.7,89.2z"/>
</svg>
